<?xml version="1.0" ?><svg enable-background="new 0 0 155 155" height="155px" id="Layer_1" version="1.1" viewBox="0 0 155 155" width="155px" xml:space="preserve" xmlns="http://www.w3.org/2000/svg" xmlns:xlink="http://www.w3.org/1999/xlink"><g><circle cx="77.5" cy="77.5" fill="#FD8369" r="77.5"/><path d="M118.78,50.39c-0.811-0.81-1.88-1.22-2.95-1.22H39.16c-1.061,0.01-2.13,0.41-2.94,1.22   C35.41,51.2,35,52.27,35,53.34v48.33c0,1.061,0.41,2.14,1.22,2.95l49.893,49.893c35.915-3.973,64.423-32.479,68.399-68.392   L118.78,50.39z" fill="#EA6552"/><g><path clip-rule="evenodd" d="M115.835,49.17c1.063-0.002,2.131,0.41,2.944,1.219    c0.809,0.813,1.221,1.875,1.221,2.949l-0.005,48.332c0.005,1.063-0.407,2.139-1.22,2.945c-0.813,0.822-1.878,1.215-2.943,1.215    H39.163c-1.065,0-2.13-0.396-2.946-1.211C35.412,103.809,35,102.732,35,101.67l0.003-48.332c0-1.07,0.405-2.135,1.216-2.949    c0.814-0.809,1.883-1.213,2.944-1.219H115.835z" fill="#FFFFFF" fill-rule="evenodd"/><g><rect clip-rule="evenodd" fill="#CCCBCA" fill-rule="evenodd" height="2.5" width="13.288" x="45.585" y="95.021"/><rect clip-rule="evenodd" fill="#CCCBCA" fill-rule="evenodd" height="2.493" width="13.289" x="62.428" y="95.021"/><polygon clip-rule="evenodd" fill="#CCCBCA" fill-rule="evenodd" points="92.569,97.521 79.278,97.515 79.278,95.021      92.569,95.021    "/><rect clip-rule="evenodd" fill="#CCCBCA" fill-rule="evenodd" height="2.5" width="13.285" x="96.125" y="95.021"/></g><rect clip-rule="evenodd" fill="#D9D8D7" fill-rule="evenodd" height="9" width="30.132" x="45.585" y="77.748"/><rect clip-rule="evenodd" fill="#343B43" fill-rule="evenodd" height="12" width="84.997" x="35.003" y="57.476"/><circle clip-rule="evenodd" cx="93.959" cy="82.248" fill="#FECE66" fill-rule="evenodd" r="6.623"/><circle clip-rule="evenodd" cx="102.79" cy="82.248" fill="#343B43" fill-rule="evenodd" r="6.623"/></g></g></svg>
