<?xml version="1.0" ?><!DOCTYPE svg  PUBLIC '-//W3C//DTD SVG 1.1//EN'  'http://www.w3.org/Graphics/SVG/1.1/DTD/svg11.dtd'><svg enable-background="new 0 0 155 155" height="155px" id="Layer_1" version="1.1" viewBox="0 0 155 155" width="155px" xml:space="preserve" xmlns="http://www.w3.org/2000/svg" xmlns:xlink="http://www.w3.org/1999/xlink"><g><circle cx="77.5" cy="77.5" fill="#FECE66" r="77.5"/><path d="M152.637,96.537L119.02,62.92l-0.8-0.8c-0.77-0.601-1.729-0.95-2.77-0.95H99.79L83.6,44.98   C82.61,44,81,44,80.02,44.98c-0.489,0.49-0.739,1.14-0.739,1.789c0,0.65,0.25,1.291,0.739,1.791L92.63,61.17h-1.45L74.98,44.98   C74,44,72.391,44,71.4,44.98L55.21,61.17H39.55c-2.5,0-4.55,2.051-4.55,4.561c0,1.25,0.51,2.39,1.34,3.209l3.21,3.211v31.609   c0,1.76,0.671,3.52,1.99,4.881c0.021,0.02,0.04,0.049,0.06,0.069c0.021,0.021,0.051,0.05,0.07,0.06l45.59,45.598   C119.099,150.363,144.926,127.064,152.637,96.537z" fill="#F5B540"/><g><path d="M39.554,70.282v33.477c0,1.792,0.684,3.583,2.051,4.95c1.366,1.366,3.158,2.05,4.949,2.05h61.893    c1.791,0,3.583-0.684,4.95-2.05c1.366-1.367,2.05-3.158,2.05-4.95V70.282H39.554z M50.224,101.882    c0,0.985-0.808,1.794-1.793,1.794c-0.986,0-1.794-0.809-1.794-1.794v-3.587c0-0.985,0.808-1.793,1.794-1.793    c0.985,0,1.793,0.808,1.793,1.793V101.882z M50.224,92.313c0,0.987-0.808,1.793-1.793,1.793c-0.986,0-1.794-0.806-1.794-1.793    v-3.586c0-0.986,0.808-1.793,1.794-1.793c0.985,0,1.793,0.807,1.793,1.793V92.313z M50.224,82.745    c0,0.986-0.808,1.793-1.793,1.793c-0.986,0-1.794-0.807-1.794-1.793v-3.586c0-0.986,0.808-1.793,1.794-1.793    c0.985,0,1.793,0.807,1.793,1.793V82.745z M59.913,101.883c0,0.985-0.807,1.793-1.793,1.793s-1.793-0.808-1.793-1.793v-3.588    c0-0.985,0.807-1.793,1.793-1.793s1.793,0.808,1.793,1.793V101.883z M59.913,92.313c0,0.987-0.807,1.793-1.793,1.793    s-1.793-0.806-1.793-1.793v-3.586c0-0.986,0.807-1.793,1.793-1.793s1.793,0.807,1.793,1.793V92.313z M59.913,82.746    c0,0.985-0.807,1.792-1.793,1.792s-1.793-0.807-1.793-1.792v-3.587c0-0.986,0.807-1.793,1.793-1.793s1.793,0.807,1.793,1.793    V82.746z M69.603,101.883c0,0.984-0.807,1.793-1.793,1.793s-1.793-0.809-1.793-1.793v-3.588c0-0.985,0.807-1.793,1.793-1.793    s1.793,0.808,1.793,1.793V101.883z M69.603,92.313c0,0.987-0.807,1.793-1.793,1.793s-1.793-0.806-1.793-1.793v-3.586    c0-0.986,0.807-1.793,1.793-1.793s1.793,0.807,1.793,1.793V92.313z M69.603,82.746c0,0.985-0.807,1.792-1.793,1.792    s-1.793-0.807-1.793-1.792v-3.587c0-0.986,0.807-1.793,1.793-1.793s1.793,0.807,1.793,1.793V82.746z M79.293,101.882    c0,0.985-0.807,1.794-1.793,1.794s-1.794-0.809-1.794-1.794v-3.587c0-0.986,0.808-1.793,1.794-1.793s1.793,0.807,1.793,1.793    V101.882z M79.293,92.313c0,0.987-0.807,1.793-1.793,1.793s-1.794-0.806-1.794-1.793v-3.586c0-0.986,0.808-1.793,1.794-1.793    s1.793,0.807,1.793,1.793V92.313z M79.293,82.745c0,0.986-0.807,1.793-1.793,1.793s-1.794-0.807-1.794-1.793v-3.586    c0-0.986,0.808-1.793,1.794-1.793s1.793,0.807,1.793,1.793V82.745z M88.983,101.883c0,0.984-0.807,1.793-1.793,1.793    s-1.793-0.809-1.793-1.793v-3.588c0-0.985,0.807-1.793,1.793-1.793s1.793,0.808,1.793,1.793V101.883z M88.983,92.313    c0,0.987-0.807,1.793-1.793,1.793s-1.793-0.806-1.793-1.793v-3.586c0-0.986,0.807-1.793,1.793-1.793s1.793,0.807,1.793,1.793    V92.313z M88.983,82.746c0,0.985-0.807,1.792-1.793,1.792s-1.793-0.807-1.793-1.792v-3.587c0-0.986,0.807-1.793,1.793-1.793    s1.793,0.807,1.793,1.793V82.746z M98.673,101.882c0,0.985-0.807,1.794-1.792,1.794c-0.987,0-1.794-0.809-1.794-1.794v-3.587    c0-0.984,0.807-1.793,1.794-1.793c0.985,0,1.792,0.809,1.792,1.793V101.882z M98.673,92.313c0,0.987-0.807,1.793-1.792,1.793    c-0.987,0-1.794-0.806-1.794-1.793v-3.586c0-0.986,0.807-1.793,1.794-1.793c0.985,0,1.792,0.807,1.792,1.793V92.313z     M98.673,82.745c0,0.986-0.807,1.793-1.792,1.793c-0.987,0-1.794-0.807-1.794-1.793v-3.586c0-0.986,0.807-1.793,1.794-1.793    c0.985,0,1.792,0.807,1.792,1.793V82.745z M108.363,101.882c0,0.985-0.807,1.794-1.793,1.794s-1.793-0.809-1.793-1.794v-3.587    c0-0.985,0.807-1.793,1.793-1.793s1.793,0.808,1.793,1.793V101.882z M108.363,92.313c0,0.987-0.807,1.793-1.793,1.793    s-1.793-0.806-1.793-1.793v-3.586c0-0.986,0.807-1.793,1.793-1.793s1.793,0.807,1.793,1.793V92.313z M108.363,82.745    c0,0.986-0.807,1.793-1.793,1.793s-1.793-0.807-1.793-1.793v-3.586c0-0.986,0.807-1.793,1.793-1.793s1.793,0.807,1.793,1.793    V82.745z" fill="#FFFFFF"/><path d="M120,65.729c0-2.506-2.049-4.555-4.554-4.555H39.554c-2.505,0-4.554,2.049-4.554,4.555l0,0    c0,2.504,2.049,4.553,4.554,4.553h75.893C117.951,70.282,120,68.233,120,65.729L120,65.729z" fill="#EA6552"/><g><g><path d="M83.598,44.979c-0.983-0.983-2.593-0.983-3.577,0.001l0,0c-0.983,0.983-0.983,2.594,0,3.576      l18.961,18.962c0.984,0.983,2.595,0.983,3.578,0l0,0c0.983-0.983,0.983-2.594,0-3.577L83.598,44.979z" fill="#343B43"/><path d="M71.402,44.979c0.983-0.983,2.593-0.983,3.577,0.001l0,0c0.983,0.983,0.983,2.594,0,3.576L56.019,67.518      c-0.984,0.983-2.595,0.983-3.578,0l0,0c-0.983-0.983-0.983-2.594,0-3.577L71.402,44.979z" fill="#343B43"/></g></g></g></g></svg>