<?xml version="1.0" ?><!DOCTYPE svg  PUBLIC '-//W3C//DTD SVG 1.1//EN'  'http://www.w3.org/Graphics/SVG/1.1/DTD/svg11.dtd'><svg enable-background="new 0 0 155 155" height="155px" id="Layer_1" version="1.1" viewBox="0 0 155 155" width="155px" xml:space="preserve" xmlns="http://www.w3.org/2000/svg" xmlns:xlink="http://www.w3.org/1999/xlink"><g><circle cx="77.5" cy="77.5" fill="#8FDEF6" r="77.5"/><path d="M155,77.5c0-0.011-0.001-0.021-0.001-0.031L119.12,41.59c-0.58-0.59-1.351-0.88-2.12-0.88H38   c-0.77,0-1.54,0.29-2.12,0.88C35.29,42.17,35,42.94,35,43.71v61.58c0,0.77,0.29,1.54,0.88,2.12l47.356,47.356   C123.357,151.827,155,118.37,155,77.5z" fill="#70C9E9"/><g><g><rect fill="#D9D8D7" height="11" width="25" x="65.001" y="108.291"/><rect fill="#FFFFFF" height="3" width="37" x="59.001" y="119.291"/><path d="M35,98.291V43.709c0-0.768,0.293-1.535,0.879-2.121s1.353-0.879,2.121-0.879h79     c0.768,0,1.537,0.293,2.121,0.879c0.586,0.586,0.879,1.354,0.879,2.121v54.582H35z" fill="#343B43"/><rect fill="#FFFFFF" height="46.581" width="74" x="40.501" y="46.209"/><path d="M120,105.29c0,0.769-0.293,1.536-0.879,2.121c-0.584,0.587-1.354,0.88-2.121,0.88H38     c-0.769,0-1.535-0.293-2.121-0.88C35.293,106.826,35,106.059,35,105.29v-6.999h85V105.29z" fill="#FFFFFF"/></g><g><g><path d="M93.756,69.508c0,8.979-7.277,16.246-16.252,16.246c-8.981,0-16.258-7.268-16.258-16.246      c0-8.974,7.276-16.264,16.258-16.264C86.479,53.244,93.756,60.534,93.756,69.508z" fill="#FECE66"/><path d="M90.505,69.508c0,7.18-5.81,13.002-13.001,13.002c-7.187,0-13.002-5.822-13.002-13.002      c0-7.188,5.815-13.011,13.002-13.011C84.695,56.497,90.505,62.32,90.505,69.508z" fill="#F5B540"/><g><g><path d="M78.877,70.578h-2.745c-1.136,0-2.205-0.445-3.002-1.254c-0.8-0.787-1.243-1.857-1.243-3.01        c0-1.135,0.438-2.203,1.243-3.012c0.791-0.801,1.856-1.24,3.002-1.24h5.923v2.143h-5.923c-0.561,0-1.096,0.22-1.479,0.612        c-0.396,0.405-0.624,0.936-0.624,1.497c0,0.572,0.215,1.1,0.607,1.488c0.406,0.408,0.938,0.628,1.496,0.628h2.745V70.578z" fill="#FECE66"/><path d="M78.877,76.951h-5.923v-2.143h5.923c0.547,0,1.092-0.232,1.483-0.623        c0.399-0.391,0.621-0.922,0.621-1.488c0-0.573-0.222-1.105-0.618-1.49c-0.398-0.409-0.925-0.629-1.486-0.629h-2.745v-2.147        h2.745c1.123,0,2.199,0.45,2.998,1.253c0.807,0.784,1.253,1.859,1.253,3.014c0,1.141-0.444,2.209-1.256,3.014        C81.071,76.508,79.993,76.951,78.877,76.951z" fill="#FECE66"/><rect fill="#FECE66" height="16.369" width="2.149" x="76.429" y="61.322"/></g></g></g><g><g><g><rect fill="#343B43" height="1.713" width="5.147" x="95.854" y="68.643"/><polygon fill="#343B43" points="99.98,62.589 100.419,64.245 95.448,65.578 95.002,63.921       "/><polygon fill="#343B43" points="100.42,74.752 99.98,76.409 95.002,75.076 95.448,73.42       "/></g><g><rect fill="#343B43" height="1.713" width="5.147" x="54.001" y="68.643"/><rect fill="#343B43" height="5.15" transform="matrix(0.2602 -0.9656 0.9656 0.2602 -19.4924 102.7269)" width="1.715" x="56.432" y="61.508"/><rect fill="#343B43" height="5.148" transform="matrix(-0.2595 -0.9657 0.9657 -0.2595 -0.1931 149.6801)" width="1.716" x="56.43" y="72.34"/></g></g></g></g><g><g><polygon fill="#343B43" points="89.188,86.973 85.271,77.271 94.973,81.186 91.195,83.193     "/><rect fill="#343B43" height="4.568" transform="matrix(0.7071 -0.7071 0.7071 0.7071 -32.6277 90.0861)" width="1.543" x="91.658" y="82.144"/></g></g></g></g></svg>