<?xml version="1.0" ?><!DOCTYPE svg  PUBLIC '-//W3C//DTD SVG 1.1//EN'  'http://www.w3.org/Graphics/SVG/1.1/DTD/svg11.dtd'><svg enable-background="new 0 0 155 155" height="155px" id="Layer_1" version="1.1" viewBox="0 0 155 155" width="155px" xml:space="preserve" xmlns="http://www.w3.org/2000/svg" xmlns:xlink="http://www.w3.org/1999/xlink"><g><circle cx="77.5" cy="77.5" fill="#495057" r="77.5"/><path d="M153.764,91.225L120.02,57.48c-0.649-0.66-1.51-0.99-2.369-0.99H95.91L75.58,36.16   c-1.41-1.25-3.271-2.01-5.3-2.01c-4.42,0-8,3.58-8,8.01c0,2.13,0.84,4.07,2.21,5.51c0.13,0.141,0.27,0.27,0.41,0.41l8.409,8.41   H37.35c-0.859,0-1.72,0.33-2.369,0.99C34.33,58.13,34,58.98,34,59.84v35.32c0,2.6,0.83,5,2.26,6.949l2.601,2.601l49.509,49.516   C121.512,149.571,147.909,123.965,153.764,91.225z" fill="#343B43"/><g><g><path d="M121,59.84c0-0.855-0.328-1.713-0.981-2.364c-0.651-0.654-1.509-0.981-2.364-0.981H37.346     c-0.856,0-1.713,0.327-2.364,0.981C34.326,58.127,34,58.984,34,59.84v35.319c0,0.856,0.326,1.713,0.981,2.365     c0.651,0.654,1.508,0.981,2.364,0.981h80.309c0.855,0,1.713-0.327,2.364-0.981c0.653-0.652,0.981-1.509,0.981-2.365V59.84z" fill="#70C9E9"/><path d="M116.357,89.066c-2.652,0-4.798,2.149-4.798,4.798H43.441c0-2.648-2.148-4.798-4.799-4.798V65.933     c2.65,0,4.799-2.148,4.799-4.795h68.118c0,2.646,2.146,4.795,4.798,4.795V89.066z" fill="#8FDEF6"/><g><g><path d="M77.501,90.36c-7.09,0-12.858-5.77-12.858-12.86s5.769-12.86,12.858-12.86       c7.089,0,12.856,5.77,12.856,12.86S84.59,90.36,77.501,90.36z M77.501,67.577c-5.471,0-9.923,4.451-9.923,9.923       s4.452,9.924,9.923,9.924c5.47,0,9.921-4.452,9.921-9.924S82.971,67.577,77.501,67.577z" fill="#70C9E9"/><g><path d="M78.83,78.972h-2.664c-1.218,0-2.369-0.477-3.235-1.338c-0.866-0.876-1.339-2.022-1.339-3.24        s0.475-2.364,1.332-3.228c0.871-0.871,2.023-1.349,3.242-1.349h2.666v2.937h-2.666c-0.437,0-0.85,0.173-1.163,0.486        c-0.304,0.305-0.473,0.717-0.473,1.153c0,0.439,0.17,0.854,0.481,1.167c0.301,0.302,0.717,0.475,1.154,0.475h2.664V78.972z" fill="#70C9E9"/><path d="M83.409,74.393h-2.938c0-0.437-0.173-0.851-0.487-1.167c-0.304-0.302-0.715-0.472-1.152-0.472v-2.937        c1.218,0,2.365,0.473,3.229,1.331C82.932,72.022,83.409,73.174,83.409,74.393z" fill="#70C9E9"/><path d="M76.168,85.183c-1.216,0-2.359-0.472-3.227-1.327c-0.871-0.876-1.35-2.027-1.35-3.247h2.938        c0,0.438,0.171,0.852,0.486,1.167c0.302,0.301,0.715,0.471,1.151,0.471V85.183z" fill="#70C9E9"/><path d="M78.83,85.183h-2.662v-2.937h2.662c0.438,0,0.851-0.17,1.158-0.479        c0.311-0.313,0.483-0.725,0.483-1.158s-0.173-0.848-0.487-1.165c-0.303-0.3-0.718-0.472-1.154-0.472v-2.937        c1.216,0,2.365,0.474,3.231,1.331c0.871,0.882,1.348,2.029,1.348,3.242c0,1.214-0.478,2.361-1.341,3.23        C81.202,84.707,80.053,85.183,78.83,85.183z" fill="#70C9E9"/><rect fill="#70C9E9" height="17.756" width="2.938" x="76.027" y="68.622"/></g><g><rect fill="#70C9E9" height="2.938" width="16.832" x="88.873" y="76.032"/><rect fill="#70C9E9" height="2.938" width="16.813" x="49.296" y="76.032"/></g><g><rect fill="#70C9E9" height="2.937" width="8.52" x="87.045" y="69.817"/><rect fill="#70C9E9" height="2.937" width="8.52" x="59.437" y="69.817"/></g><g><rect fill="#70C9E9" height="2.937" width="8.907" x="86.657" y="82.246"/><rect fill="#70C9E9" height="2.937" width="8.521" x="59.437" y="82.246"/></g></g></g></g><g><g><path d="M57.68,95.159c0,6.539-5.301,11.832-11.838,11.832c-6.543,0-11.842-5.293-11.842-11.832      c0-6.537,5.299-11.848,11.842-11.848C52.379,83.312,57.68,88.622,57.68,95.159z" fill="#FECE66"/><path d="M54.282,95.159c0,4.659-3.771,8.441-8.44,8.441c-4.667,0-8.441-3.782-8.441-8.441      c0-4.668,3.774-8.449,8.441-8.449C50.512,86.71,54.282,90.491,54.282,95.159z" fill="#F5B540"/></g><g><path d="M78.275,42.156c0,4.416-3.584,7.992-7.998,7.992c-4.42,0-8.002-3.576-8.002-7.992      c0-4.422,3.582-8.008,8.002-8.008C74.691,34.148,78.275,37.734,78.275,42.156z" fill="#FECE66"/><path d="M75.98,42.156c0,3.145-2.549,5.703-5.703,5.703c-3.152,0-5.705-2.559-5.705-5.703      c0-3.155,2.553-5.712,5.705-5.712C73.432,36.444,75.98,39.001,75.98,42.156z" fill="#F5B540"/></g><g><path d="M91.21,56.941c0,3.036-2.464,5.494-5.498,5.494c-3.039,0-5.502-2.458-5.502-5.494      c0-3.041,2.463-5.506,5.502-5.506C88.746,51.436,91.21,53.9,91.21,56.941z" fill="#FECE66"/><path d="M89.633,56.941c0,2.16-1.753,3.92-3.921,3.92s-3.922-1.76-3.922-3.92c0-2.17,1.754-3.928,3.922-3.928      S89.633,54.771,89.633,56.941z" fill="#F5B540"/></g></g></g></g></svg>