<?xml version="1.0" ?><!DOCTYPE svg  PUBLIC '-//W3C//DTD SVG 1.1//EN'  'http://www.w3.org/Graphics/SVG/1.1/DTD/svg11.dtd'><svg enable-background="new 0 0 155 155" height="155px" id="Layer_1" version="1.1" viewBox="0 0 155 155" width="155px" xml:space="preserve" xmlns="http://www.w3.org/2000/svg" xmlns:xlink="http://www.w3.org/1999/xlink"><g><circle cx="77.5" cy="77.5" fill="#8FDEF6" r="77.5"/><path d="M155,77.5c0-3.002-0.188-5.957-0.521-8.87L104.3,18.45l-0.68-0.68c-1.42-1.26-3.29-2.03-5.33-2.03   c-4.431,0-8.04,3.6-8.04,8.04v6.59h-6.99c-1.73,0-3.359,0.68-4.58,1.899c-0.59,0.59-1.039,1.26-1.359,1.99h-14.01   c0,8.08-6.551,14.641-14.631,14.641v68.84c0,0.76,0.291,1.529,0.881,2.119l34.818,34.82C123.956,151.195,155,117.98,155,77.5z" fill="#70C9E9"/><g><path d="M91.689,34.264H63.309c0,8.081-6.551,14.634-14.633,14.634v68.84c0,0.768,0.293,1.536,0.879,2.121    c0.586,0.586,1.354,0.879,2.121,0.879h51.648c0.768,0,1.535-0.293,2.121-0.879c0.586-0.585,0.879-1.354,0.879-2.121v-68.84    C98.24,48.897,91.689,42.345,91.689,34.264z M77.5,48.32c-2.07,0-3.748-1.678-3.748-3.747s1.678-3.747,3.748-3.747    c2.068,0,3.748,1.678,3.748,3.747S79.568,48.32,77.5,48.32z" fill="#FFFFFF"/><g><g><polygon fill="#343B43" points="58.469,114.973 54.439,114.973 54.439,110.942 56.745,110.942 56.745,112.666 58.469,112.666           "/><path d="M56.745,105.137h-2.306v-5.806h2.306V105.137z M56.745,93.525h-2.306V87.72h2.306V93.525z       M56.745,81.914h-2.306v-5.805h2.306V81.914z M56.745,70.303h-2.306v-5.805h2.306V70.303z" fill="#343B43"/><polygon fill="#343B43" points="56.745,58.691 54.439,58.691 54.439,54.662 58.469,54.662 58.469,56.968 56.745,56.968     "/><path d="M91.093,56.968h-5.437v-2.306h5.437V56.968z M80.219,56.968h-5.438v-2.306h5.438V56.968z M69.344,56.968      h-5.438v-2.306h5.438V56.968z" fill="#343B43"/><polygon fill="#343B43" points="100.56,58.691 98.254,58.691 98.254,56.968 96.529,56.968 96.529,54.662 100.56,54.662     "/><path d="M100.56,105.137h-2.306v-5.806h2.306V105.137z M100.56,93.525h-2.306V87.72h2.306V93.525z       M100.56,81.914h-2.306v-5.805h2.306V81.914z M100.56,70.303h-2.306v-5.805h2.306V70.303z" fill="#343B43"/><polygon fill="#343B43" points="100.56,114.973 96.529,114.973 96.529,112.666 98.254,112.666 98.254,110.942 100.56,110.942           "/><path d="M91.092,114.973h-5.437v-2.307h5.437V114.973z M80.218,114.973h-5.437v-2.307h5.437V114.973z       M69.344,114.973h-5.438v-2.307h5.438V114.973z" fill="#343B43"/></g></g><g><circle cx="77.5" cy="84.816" fill="#EA6552" r="15.564"/><g><rect fill="#FFFFFF" height="18.752" transform="matrix(0.7071 0.7071 -0.7071 0.7071 82.6742 -29.9583)" width="2.306" x="76.347" y="75.441"/><g><path d="M81.629,92.6c-2.013,0-3.65-1.639-3.65-3.652s1.638-3.652,3.65-3.652c2.015,0,3.653,1.639,3.653,3.652       S83.644,92.6,81.629,92.6z M81.629,87.6c-0.741,0-1.345,0.605-1.345,1.348s0.604,1.348,1.345,1.348       c0.743,0,1.348-0.605,1.348-1.348S82.372,87.6,81.629,87.6z" fill="#FFFFFF"/><path d="M73.369,84.34c-2.014,0-3.652-1.639-3.652-3.652c0-2.015,1.639-3.652,3.652-3.652       c2.015,0,3.653,1.638,3.653,3.652C77.022,82.701,75.384,84.34,73.369,84.34z M73.369,79.34c-0.742,0-1.347,0.604-1.347,1.348       c0,0.742,0.604,1.347,1.347,1.347c0.743,0,1.348-0.604,1.348-1.347C74.717,79.944,74.112,79.34,73.369,79.34z" fill="#FFFFFF"/></g></g></g><path d="M77.5,40.25c-2.389,0-4.324,1.936-4.324,4.323s1.936,4.324,4.324,4.324c2.387,0,4.324-1.937,4.324-4.324    S79.887,40.25,77.5,40.25z M77.5,47.455c-1.592,0-2.883-1.29-2.883-2.882c0-1.593,1.291-2.883,2.883-2.883    c1.59,0,2.881,1.29,2.881,2.883C80.381,46.165,79.09,47.455,77.5,47.455z" fill="#CCCBCA"/><g><g><path d="M78.221,44.573h-1.441v-7.716c0-1.732,0.674-3.361,1.9-4.586c1.225-1.226,2.852-1.9,4.584-1.9h15.023      v1.441H83.264c-1.348,0-2.613,0.525-3.564,1.477c-0.953,0.953-1.479,2.221-1.479,3.568V44.573z" fill="#343B43"/><path d="M98.287,31.813v-1.441c3.637,0,6.596-2.959,6.596-6.596c0-3.638-2.959-6.597-6.596-6.597      c-3.639,0-6.598,2.959-6.598,6.597H90.25c0-4.433,3.605-8.038,8.037-8.038s8.037,3.605,8.037,8.038      C106.324,28.207,102.719,31.813,98.287,31.813z" fill="#343B43"/><rect fill="#343B43" height="10.488" width="1.439" x="90.25" y="23.775"/><circle cx="77.5" cy="44.573" fill="#343B43" r="0.721"/></g></g></g></g></svg>