<?xml version="1.0" ?><!DOCTYPE svg  PUBLIC '-//W3C//DTD SVG 1.1//EN'  'http://www.w3.org/Graphics/SVG/1.1/DTD/svg11.dtd'><svg enable-background="new 0 0 223.81 223.81" height="223.81px" id="Livello_1" version="1.1" viewBox="0 0 223.81 223.81" width="223.81px" xml:space="preserve" xmlns="http://www.w3.org/2000/svg" xmlns:xlink="http://www.w3.org/1999/xlink"><g><circle cx="111.905" cy="111.905" fill="#627077" r="111.321"/><path d="M219.941,138.849l-75.101-88.47l-23.579,19.458l-8.375,29.5l-4.875-3.125l3.893,20.25   l-13.973,56.098l41.506,47.233c16.573-4.706,25.655-9.214,34.198-15.081C214.137,176.9,219.199,138.525,219.941,138.849z" fill="#010202" opacity="0.15"/><path d="M126.013,73.539h18.827v-23.16h-18.827c-15.562,0-28.222,13.752-28.222,30.763v11.58H78.97v23.528h18.821   v57.181h23.528V116.25h23.522V92.722h-23.522V80.78C121.318,76.798,123.485,73.539,126.013,73.539z" fill="#3661AB"/></g></svg>