<?xml version="1.0" ?><!DOCTYPE svg  PUBLIC '-//W3C//DTD SVG 1.1//EN'  'http://www.w3.org/Graphics/SVG/1.1/DTD/svg11.dtd'><svg enable-background="new 0 0 155 155" height="155px" id="Layer_1" version="1.1" viewBox="0 0 155 155" width="155px" xml:space="preserve" xmlns="http://www.w3.org/2000/svg" xmlns:xlink="http://www.w3.org/1999/xlink"><g><circle cx="77.5" cy="77.5" fill="#495057" r="77.5"/><path d="M153.437,93.06l-39.106-39.1c-0.03-0.04-0.07-0.08-0.1-0.11l-0.19-0.189c-0.57-0.54-1.3-0.811-2.04-0.811   h-4.53L95.83,41.21c-0.45-0.62-0.99-1.17-1.61-1.61c-1.21-0.899-2.71-1.43-4.33-1.43c-1.96,0-3.81,0.771-5.189,2.16l-7.2,7.2   l-7.2-7.2c-1.38-1.39-3.229-2.16-5.19-2.16c-4.049,0-7.34,3.3-7.34,7.34c0,4.05,3.291,7.34,7.34,7.34H43   c-0.77,0-1.54,0.301-2.12,0.881C40.29,54.32,40,55.09,40,55.85V67.5c0,0.77,0.29,1.54,0.88,2.12l3.53,3.53v38.47   c0,0.77,0.3,1.53,0.88,2.12l40.778,40.777C119.659,150.822,146.789,125.671,153.437,93.06z" fill="#343B43"/><g><g><path d="M110.588,111.619c0,0.768-0.293,1.535-0.879,2.121c-0.585,0.586-1.354,0.879-2.121,0.879H47.412     c-0.768,0-1.536-0.293-2.121-0.879c-0.586-0.586-0.879-1.354-0.879-2.121V70.501h66.176V111.619z" fill="#FD8369"/><path d="M115,67.501c0,0.768-0.293,1.536-0.879,2.121c-0.586,0.586-1.354,0.879-2.121,0.879H43     c-0.768,0-1.535-0.293-2.121-0.879C40.293,69.037,40,68.269,40,67.501V55.854c0-0.768,0.293-1.536,0.879-2.121     c0.586-0.586,1.354-0.879,2.121-0.879h69c0.768,0,1.535,0.293,2.121,0.879c0.586,0.585,0.879,1.354,0.879,2.121V67.501z" fill="#EA6552"/><rect fill="#FFFFFF" height="44.118" width="4.412" x="75.294" y="70.501"/><rect fill="#FFFFFF" height="4.411" width="66.176" x="44.412" y="79.325"/><rect fill="#E6E5E5" height="17.646" width="4.412" x="75.294" y="52.854"/></g><g><path d="M82.823,52.854H65.106c-4.046,0-7.338-3.293-7.338-7.341c0-4.047,3.292-7.339,7.338-7.339     c1.966,0,3.812,0.767,5.198,2.159L82.823,52.854z M65.106,42.587c-1.613,0-2.926,1.313-2.926,2.927     c0,1.615,1.313,2.929,2.926,2.929h7.066l-4.991-4.992C66.626,42.893,65.89,42.587,65.106,42.587z" fill="#FFFFFF"/><path d="M89.891,52.854H72.173l12.523-12.523c1.385-1.39,3.23-2.156,5.194-2.156c4.048,0,7.341,3.292,7.341,7.339     C97.231,49.562,93.938,52.854,89.891,52.854z M82.823,48.442h7.067c1.615,0,2.929-1.313,2.929-2.929     c0-1.614-1.313-2.927-2.929-2.927c-0.783,0-1.519,0.306-2.072,0.861L82.823,48.442z" fill="#FFFFFF"/><rect fill="#FFFFFF" height="4.411" transform="matrix(0.7071 0.7071 -0.7071 0.7071 64.9166 -42.6186)" width="18.124" x="74.844" y="54.851"/><rect fill="#FFFFFF" height="18.89" transform="matrix(0.7071 0.7071 -0.7071 0.7071 61.2791 -33.2864)" width="4.411" x="68.614" y="47.882"/></g></g></g></svg>