<svg xmlns="http://www.w3.org/2000/svg">
  <symbol viewBox="0 0 223.81 223.81" id="facebook">
    <title>Facebook</title>    <g>      <circle cx="111.905" cy="111.905" fill="#627077" r="111.321"/><path d="M219.941,138.849l-75.101-88.47l-23.579,19.458l-8.375,29.5l-4.875-3.125l3.893,20.25   l-13.973,56.098l41.506,47.233c16.573-4.706,25.655-9.214,34.198-15.081C214.137,176.9,219.199,138.525,219.941,138.849z" fill="#010202" opacity="0.15"/><path d="M126.013,73.539h18.827v-23.16h-18.827c-15.562,0-28.222,13.752-28.222,30.763v11.58H78.97v23.528h18.821   v57.181h23.528V116.25h23.522V92.722h-23.522V80.78C121.318,76.798,123.485,73.539,126.013,73.539z" fill="#3661AB"/>    </g>  </symbol>  <symbol viewBox="0 0 223.81 223.81" id="twitter">    <title>Twitter</title>    <g>      <circle cx="111.905" cy="111.905" fill="#627077" r="111.321"/><path d="M222.099,127.786l-53.003-62.991l-41.777,41.909l-5.5,25.75L89.25,110.631l11.318,34.199   l-48.985,5.135l62.028,73.246c14.189,0,29.521-3.878,39.145-7.72C200.444,196.455,220.11,151.288,222.099,127.786z" fill="#010202" opacity="0.15"/><path d="M51.584,149.976c10.777,6.962,23.989,11.125,37.897,11.125c22.592,0,40.68-9.386,52.501-22.94   c11.815-13.566,17.728-30.946,17.728-47.637v-3.131c5.212-3.821,9.386-8.342,12.516-12.864c-4.522,1.739-9.044,2.783-14.256,3.826   c5.212-3.131,8.696-7.995,11.125-13.56c-5.212,2.435-10.424,4.87-16.337,5.908c-4.174-5.212-10.435-7.995-17.728-7.995   c-13.566,0-24.691,11.125-24.691,25.039c0,1.392,0.348,3.131,0.696,5.566C90.171,92.269,72.437,82.53,59.92,67.236   c-2.081,3.826-3.131,7.995-3.131,12.516c0,9.386,3.478,15.995,10.783,20.517c-4.168,0-7.995-1.049-11.125-2.783v0.342   c0,12.169,8.342,21.897,19.468,24.337c-1.739,0.348-3.821,0.69-6.603,0.69c-1.044,0-2.435-0.348-4.168-0.69   c2.777,9.734,11.821,17.038,22.946,17.386c-8.69,6.951-19.125,10.424-30.598,10.424H51.584z" fill="#33B6E4"/>    </g>  </symbol></svg>