<?xml version="1.0" ?><!DOCTYPE svg  PUBLIC '-//W3C//DTD SVG 1.1//EN'  'http://www.w3.org/Graphics/SVG/1.1/DTD/svg11.dtd'><svg enable-background="new 0 0 155 155" height="155px" id="Layer_1" version="1.1" viewBox="0 0 155 155" width="155px" xml:space="preserve" xmlns="http://www.w3.org/2000/svg" xmlns:xlink="http://www.w3.org/1999/xlink"><g><circle cx="77.5" cy="77.5" fill="#FD8369" r="77.5"/><path d="M154.364,87.277L107,39.92L102.08,35l-4.91,4.92L92.25,35l-4.92,4.92L82.42,35l-4.92,4.92L72.58,35   l-4.91,4.92L62.75,35l-4.92,4.92L52.92,35L48,39.92v75.16l4.92,4.92l34.358,34.364C122.256,149.957,149.957,122.255,154.364,87.277   z" fill="#EA6552"/><g><g><rect fill="#FFFFFF" height="75.167" width="59" x="48" y="39.916"/><g><rect fill="#FFFFFF" height="6.953" transform="matrix(0.7072 0.707 -0.707 0.7072 43.7177 -25.7266)" width="6.953" x="49.441" y="36.44"/><rect fill="#FFFFFF" height="6.953" transform="matrix(0.7072 0.707 -0.707 0.7072 46.597 -32.6789)" width="6.953" x="59.274" y="36.44"/><rect fill="#FFFFFF" height="6.953" transform="matrix(0.7072 0.707 -0.707 0.7072 49.4763 -39.6312)" width="6.953" x="69.107" y="36.44"/><rect fill="#FFFFFF" height="6.953" transform="matrix(0.7072 0.707 -0.707 0.7072 52.3557 -46.5835)" width="6.953" x="78.94" y="36.44"/><rect fill="#FFFFFF" height="6.953" transform="matrix(0.7072 0.707 -0.707 0.7072 55.235 -53.5358)" width="6.953" x="88.774" y="36.44"/><rect fill="#FFFFFF" height="6.953" transform="matrix(0.7072 0.707 -0.707 0.7072 58.1143 -60.4881)" width="6.953" x="98.607" y="36.44"/></g><g><rect fill="#FFFFFF" height="6.954" transform="matrix(0.7071 0.7071 -0.7071 0.7071 96.8753 -3.7116)" width="6.954" x="49.441" y="111.606"/><rect fill="#FFFFFF" height="6.954" transform="matrix(0.7071 0.7071 -0.7071 0.7071 99.7553 -10.6646)" width="6.954" x="59.274" y="111.606"/><rect fill="#FFFFFF" height="6.954" transform="matrix(0.7071 0.7071 -0.7071 0.7071 102.6353 -17.6176)" width="6.954" x="69.107" y="111.606"/><rect fill="#FFFFFF" height="6.954" transform="matrix(0.7071 0.7071 -0.7071 0.7071 105.5154 -24.5706)" width="6.954" x="78.94" y="111.606"/><rect fill="#FFFFFF" height="6.954" transform="matrix(0.7071 0.7071 -0.7071 0.7071 108.3954 -31.5236)" width="6.954" x="88.773" y="111.606"/><rect fill="#FFFFFF" height="6.954" transform="matrix(0.7071 0.7071 -0.7071 0.7071 111.2754 -38.4766)" width="6.954" x="98.606" y="111.606"/></g></g><g><g><g><g><rect fill="#343B43" height="2.837" width="7.091" x="59.347" y="51.262"/><rect fill="#343B43" height="2.836" width="2.837" x="59.347" y="59.771"/><rect fill="#343B43" height="2.836" width="2.837" x="59.347" y="48.426"/><rect fill="#343B43" height="2.837" width="2.837" x="59.347" y="71.117"/><rect fill="#343B43" height="2.836" width="7.092" x="55.092" y="68.281"/><path d="M59.347,62.607c-3.128,0-5.673-2.545-5.673-5.672c0-3.129,2.545-5.674,5.673-5.674v2.837        c-1.563,0-2.837,1.272-2.837,2.837c0,1.563,1.273,2.836,2.837,2.836V62.607z" fill="#343B43"/><path d="M62.184,71.117v-2.836c1.563,0,2.836-1.273,2.836-2.837s-1.272-2.837-2.836-2.837v-2.836        c3.127,0,5.672,2.545,5.672,5.673S65.311,71.117,62.184,71.117z" fill="#343B43"/></g></g><g><rect fill="#D9D8D7" height="2.836" width="14.182" x="53.674" y="76.791"/><rect fill="#D9D8D7" height="2.837" width="14.182" x="53.674" y="82.463"/></g></g><g><rect fill="#343B43" height="2.836" width="13.898" x="73.529" y="48.426"/><rect fill="#D9D8D7" height="2.837" width="27.797" x="73.529" y="54.099"/><rect fill="#D9D8D7" height="2.836" width="27.797" x="73.529" y="59.771"/><rect fill="#D9D8D7" height="2.837" width="27.797" x="73.529" y="65.444"/><rect fill="#D9D8D7" height="2.837" width="27.797" x="73.529" y="71.117"/><rect fill="#D9D8D7" height="2.836" width="27.797" x="73.529" y="76.791"/><rect fill="#D9D8D7" height="2.837" width="27.797" x="73.529" y="82.463"/></g><g><rect fill="#D9D8D7" height="2.837" width="28.365" x="63.317" y="90.973"/><rect fill="#D9D8D7" height="2.836" width="14.183" x="70.408" y="96.646"/></g><g><rect fill="#D9D8D7" height="1.419" width="2.809" x="50.811" y="105.155"/><rect fill="#D9D8D7" height="1.419" width="2.81" x="56.429" y="105.155"/><rect fill="#D9D8D7" height="1.419" width="2.81" x="62.048" y="105.155"/><rect fill="#D9D8D7" height="1.419" width="2.81" x="67.667" y="105.155"/><rect fill="#D9D8D7" height="1.419" width="2.811" x="73.285" y="105.155"/><rect fill="#D9D8D7" height="1.419" width="2.81" x="78.904" y="105.155"/><rect fill="#D9D8D7" height="1.419" width="2.81" x="84.523" y="105.155"/><rect fill="#D9D8D7" height="1.419" width="2.81" x="90.143" y="105.155"/><rect fill="#D9D8D7" height="1.419" width="2.81" x="95.762" y="105.155"/><rect fill="#D9D8D7" height="1.419" width="2.809" x="101.381" y="105.155"/></g></g></g></g></svg>