<?xml version="1.0" ?><!DOCTYPE svg  PUBLIC '-//W3C//DTD SVG 1.1//EN'  'http://www.w3.org/Graphics/SVG/1.1/DTD/svg11.dtd'><svg enable-background="new 0 0 155 155" height="155px" id="Layer_1" version="1.1" viewBox="0 0 155 155" width="155px" xml:space="preserve" xmlns="http://www.w3.org/2000/svg" xmlns:xlink="http://www.w3.org/1999/xlink"><g><circle cx="77.5" cy="77.5" fill="#495057" r="77.5"/><path d="M79.234,154.956c32.965-0.726,60.846-22.018,71.318-51.566l-52.699-52.7l-0.779-0.779   c-0.49-0.32-1.09-0.46-1.711-0.35l-3.59,0.609c-0.311,0.053-0.643,0.049-0.977,0.003l-4.764-4.763   c-0.195-0.309-0.451-0.554-0.738-0.74l-0.012-0.01c-0.016-0.01-0.035-0.014-0.051-0.023c-0.158-0.096-0.324-0.171-0.498-0.229   c-0.051-0.018-0.102-0.035-0.154-0.049c-0.193-0.051-0.393-0.085-0.594-0.087c-0.037-0.001-0.072,0.008-0.109,0.009   c-0.172,0.006-0.34,0.031-0.508,0.073c-0.063,0.015-0.123,0.032-0.184,0.053c-0.201,0.067-0.396,0.151-0.582,0.272l-3.02,2.01   c-1.141,0.761-3.019,0.761-4.169,0l-3.02-2.01c-1.15-0.76-2.69-0.43-3.42,0.73l-1.951,3.07c-0.74,1.16-2.449,1.92-3.799,1.689   l-3.58-0.609c-1.361-0.23-2.631,0.699-2.83,2.06l-0.541,3.59c-0.199,1.36-1.449,2.75-2.779,3.09l-3.52,0.91   c-1.33,0.351-2.121,1.71-1.75,3.03l0.979,3.49c0.37,1.33-0.21,3.109-1.29,3.97l-2.85,2.26c-1.08,0.851-1.24,2.42-0.371,3.479   l2.32,2.801c0.881,1.05,1.08,2.92,0.44,4.14l-1.681,3.21c-0.529,1.01-0.289,2.2,0.5,2.93l5.891,5.891l-0.2,3.35   c-0.03,0.41,0.05,0.811,0.2,1.16l1.24,1.24l3.119,3.119l5.132,5.132l-14.483,14.483L79.234,154.956z" fill="#343B43"/><g><g><g><polygon fill="#FD8369" points="61.975,91.855 47.172,122.895 58.635,118.834 62.698,130.297 77.499,99.259     "/><polygon fill="#FD8369" points="93.021,91.855 107.824,122.895 96.363,118.834 92.301,130.297 77.499,99.259     "/></g></g><path d="M75.418,46.689c1.146,0.761,3.021,0.761,4.166,0l3.025-2.01c1.145-0.761,2.684-0.433,3.42,0.729    l1.945,3.069c0.736,1.161,2.449,1.923,3.805,1.693l3.582-0.607c1.355-0.229,2.629,0.695,2.83,2.056l0.529,3.588    c0.201,1.36,1.455,2.755,2.787,3.099l3.514,0.906c1.332,0.344,2.119,1.709,1.75,3.033l-0.975,3.488    c-0.369,1.324,0.209,3.107,1.285,3.962l2.854,2.264c1.078,0.854,1.24,2.42,0.363,3.479l-2.314,2.797    c-0.877,1.06-1.074,2.923-0.438,4.142l1.684,3.216c0.637,1.219,0.15,2.716-1.082,3.327l-3.252,1.615    c-1.232,0.612-2.17,2.235-2.084,3.607l0.227,3.622c0.086,1.372-0.969,2.543-2.342,2.602l-3.627,0.153    c-1.375,0.059-2.891,1.161-3.369,2.45l-1.264,3.4c-0.479,1.289-1.916,1.93-3.195,1.424l-3.379-1.336    c-1.279-0.506-3.111-0.116-4.074,0.866l-2.539,2.592c-0.961,0.982-2.535,0.982-3.498,0.001l-2.543-2.594    c-0.963-0.981-2.795-1.371-4.074-0.865l-3.377,1.336c-1.279,0.506-2.717-0.135-3.195-1.424l-1.266-3.4    c-0.479-1.289-1.994-2.392-3.369-2.45l-3.625-0.153c-1.375-0.059-2.428-1.229-2.342-2.602l0.227-3.622    c0.086-1.372-0.852-2.995-2.084-3.607l-3.252-1.615c-1.232-0.611-1.719-2.108-1.082-3.327l1.684-3.216    c0.637-1.219,0.439-3.082-0.438-4.141L44.7,75.438c-0.877-1.059-0.713-2.624,0.363-3.479l2.854-2.264    c1.078-0.854,1.656-2.637,1.287-3.961l-0.977-3.49c-0.369-1.324,0.418-2.688,1.748-3.031l3.518-0.908    c1.332-0.343,2.586-1.737,2.787-3.098l0.529-3.588c0.201-1.36,1.475-2.285,2.83-2.056l3.582,0.607    c1.355,0.229,3.068-0.532,3.803-1.693l1.945-3.069c0.736-1.161,2.275-1.489,3.422-0.729L75.418,46.689z" fill="#FECE66"/><circle cx="77.5" cy="77.498" fill="#F5B540" r="24.168"/><polygon fill="#FFFFFF" points="77.5,64.403 81.756,73.025 91.27,74.408 84.385,81.119 86.01,90.596 77.5,86.121 68.99,90.596     70.615,81.119 63.73,74.408 73.245,73.025   "/></g></g></svg>