<?xml version="1.0" ?><!DOCTYPE svg  PUBLIC '-//W3C//DTD SVG 1.1//EN'  'http://www.w3.org/Graphics/SVG/1.1/DTD/svg11.dtd'><svg enable-background="new 0 0 155 155" height="155px" id="Layer_1" version="1.1" viewBox="0 0 155 155" width="155px" xml:space="preserve" xmlns="http://www.w3.org/2000/svg" xmlns:xlink="http://www.w3.org/1999/xlink"><g><circle cx="77.5" cy="77.5" fill="#495057" r="77.5"/><path d="M154.793,82.883L111.92,40.01L111.91,40H43.08v11.92L40,55v57.19c0,0.68,0.24,1.35,0.73,1.89   c0.029,0.03,0.06,0.07,0.09,0.1c0.039,0.04,0.07,0.07,0.109,0.101l40.615,40.614C120.678,152.883,152.117,121.837,154.793,82.883z" fill="#343B43"/><g><g><rect fill="#EA6552" height="61.875" width="68.834" x="43.083" y="40"/><rect fill="#FD8369" height="46.875" width="75" x="40" y="55"/><path d="M115,112.188c0,0.721-0.274,1.439-0.824,1.988c-0.549,0.551-1.269,0.824-1.988,0.824H42.813     c-0.72,0-1.439-0.273-1.988-0.824c-0.55-0.549-0.824-1.268-0.824-1.988v-10.313h75V112.188z" fill="#EA6552"/><g><polygon fill="#E24F3B" points="40,55 49.042,55 49.042,45.959     "/><polygon fill="#FD8369" points="43.083,51.918 49.042,45.959 43.083,40     "/></g><g><polygon fill="#E24F3B" points="115,55 105.959,55 105.959,45.959     "/><polygon fill="#FD8369" points="111.917,51.918 105.959,45.959 111.917,40     "/></g></g><g><g><g><circle cx="58.75" cy="63.574" fill="#343B43" r="2.813"/><circle cx="96.25" cy="63.574" fill="#343B43" r="2.813"/></g></g><path d="M77.5,93.283c-5.364,0-10.395-2.527-14.164-7.115c-3.713-4.523-5.758-10.52-5.758-16.887v-5.707     c0-0.646,0.524-1.172,1.172-1.172s1.172,0.525,1.172,1.172v5.707c0,5.826,1.855,11.295,5.225,15.398     c3.316,4.037,7.703,6.26,12.354,6.26c4.651,0,9.038-2.223,12.354-6.26c3.369-4.104,5.225-9.572,5.225-15.398v-5.707     c0-0.646,0.524-1.172,1.172-1.172s1.172,0.525,1.172,1.172v5.707c0,6.367-2.045,12.363-5.758,16.885     C87.896,90.756,82.865,93.283,77.5,93.283z" fill="#EA6552"/><path d="M77.5,88.184c-5.321,0-10.324-2.072-14.088-5.834c-3.762-3.764-5.834-8.768-5.834-14.088v-4.688     c0-0.646,0.524-1.172,1.172-1.172s1.172,0.525,1.172,1.172v4.688c0,4.695,1.828,9.109,5.148,12.43s7.734,5.148,12.43,5.148     c4.696,0,9.11-1.828,12.43-5.148c3.32-3.32,5.148-7.734,5.148-12.43v-4.688c0-0.646,0.524-1.172,1.172-1.172     s1.172,0.525,1.172,1.172v4.688c0,5.32-2.072,10.324-5.834,14.086C87.825,86.111,82.822,88.184,77.5,88.184z" fill="#FFFFFF"/></g></g></g></svg>