<?xml version="1.0" ?><!DOCTYPE svg  PUBLIC '-//W3C//DTD SVG 1.1//EN'  'http://www.w3.org/Graphics/SVG/1.1/DTD/svg11.dtd'><svg enable-background="new 0 0 155 155" height="155px" id="Layer_1" version="1.1" viewBox="0 0 155 155" width="155px" xml:space="preserve" xmlns="http://www.w3.org/2000/svg" xmlns:xlink="http://www.w3.org/1999/xlink"><g><circle cx="77.5" cy="77.5" fill="#8FDEF6" r="77.5"/><path d="M79.772,154.942c39.651-1.145,71.82-32.055,74.953-71.176L119.27,48.311   c-0.02-0.021-0.029-0.031-0.05-0.051c-0.02-0.02-0.029-0.029-0.05-0.05c-0.51-0.489-1.17-0.729-1.83-0.729H98.76l-4.43-4.431   c-0.59-0.59-1.35-0.88-2.12-0.88H62.79c-0.771,0-1.53,0.29-2.12,0.88c-0.59,0.591-0.88,1.351-0.88,2.12v2.311H37.66   c-0.68,0-1.36,0.26-1.881,0.779C35.26,48.779,35,49.46,35,50.141c0,0.68,0.26,1.359,0.779,1.879L37.66,53.9v58.93L79.772,154.942z" fill="#70C9E9"/><g><rect fill="#FECE66" height="60.031" width="79.688" x="37.656" y="52.797"/><g><path d="M37.656,52.797v15.584c0,2.444,1.982,4.428,4.428,4.428c2.444,0,4.426-1.983,4.426-4.428V52.797H37.656z" fill="#FD8369"/><path d="M46.51,52.797v15.584c0,2.444,1.982,4.428,4.428,4.428s4.428-1.983,4.428-4.428V52.797H46.51z" fill="#EA6552"/><path d="M55.365,52.797v15.584c0,2.444,1.98,4.428,4.427,4.428c2.444,0,4.427-1.983,4.427-4.428V52.797H55.365z" fill="#FD8369"/><path d="M64.219,52.797v15.584c0,2.444,1.982,4.428,4.427,4.428c2.446,0,4.428-1.983,4.428-4.428V52.797H64.219z" fill="#EA6552"/><path d="M73.073,52.797v15.584c0,2.444,1.981,4.428,4.427,4.428s4.427-1.983,4.427-4.428V52.797H73.073z" fill="#FD8369"/><path d="M81.927,52.797v15.584c0,2.444,1.982,4.428,4.428,4.428s4.427-1.983,4.427-4.428V52.797H81.927z" fill="#EA6552"/><path d="M90.781,52.797v15.584c0,2.444,1.981,4.428,4.427,4.428c2.446,0,4.428-1.983,4.428-4.428V52.797H90.781z" fill="#FD8369"/><path d="M99.636,52.797v15.584c0,2.444,1.981,4.428,4.427,4.428s4.427-1.983,4.427-4.428V52.797H99.636z" fill="#EA6552"/><path d="M108.489,52.797v15.584c0,2.444,1.981,4.428,4.428,4.428c2.445,0,4.427-1.983,4.427-4.428V52.797H108.489     z" fill="#FD8369"/></g><path d="M120,50.141c0-0.68-0.26-1.359-0.778-1.878s-1.198-0.778-1.878-0.778H37.656    c-0.68,0-1.359,0.26-1.879,0.778C35.26,48.781,35,49.461,35,50.141l0,0c0,0.68,0.26,1.359,0.777,1.879    c0.52,0.519,1.199,0.777,1.879,0.777h79.688c0.68,0,1.359-0.259,1.878-0.777C119.74,51.5,120,50.82,120,50.141L120,50.141z" fill="#343B43"/><g><path d="M95.209,45.172c0-0.768-0.293-1.535-0.879-2.121s-1.354-0.879-2.121-0.879H62.792     c-0.768,0-1.536,0.293-2.121,0.879c-0.586,0.586-0.879,1.354-0.879,2.121v7.625h35.417V45.172z" fill="#343B43"/><rect fill="#FFFFFF" height="5.313" width="30.104" x="62.448" y="44.828"/></g><g><rect fill="#343B43" height="34.531" width="17.709" x="46.51" y="78.297"/><rect fill="#FFFFFF" height="29.219" width="12.396" x="49.166" y="80.953"/><rect fill="#343B43" height="2.656" width="12.396" x="49.166" y="94.234"/></g><g><rect fill="#343B43" height="18.594" width="35.416" x="73.073" y="78.297"/><rect fill="#FFFFFF" height="13.281" width="30.104" x="75.729" y="80.953"/><rect fill="#343B43" height="13.281" width="2.656" x="89.453" y="80.953"/></g><rect fill="#343B43" height="2.656" width="79.688" x="37.656" y="110.172"/></g></g></svg>