<?xml version="1.0" ?><!DOCTYPE svg  PUBLIC '-//W3C//DTD SVG 1.1//EN'  'http://www.w3.org/Graphics/SVG/1.1/DTD/svg11.dtd'><svg enable-background="new 0 0 155 155" height="155px" id="Layer_1" version="1.1" viewBox="0 0 155 155" width="155px" xml:space="preserve" xmlns="http://www.w3.org/2000/svg" xmlns:xlink="http://www.w3.org/1999/xlink"><g><circle cx="77.5" cy="77.5" fill="#495057" r="77.5"/><path d="M154.461,86.521L118.71,50.77c-0.72-0.68-1.7-1.1-2.76-1.1h-6.07l-4.05-4.05H45.12v4.05h-6.07   c-2.229,0-4.05,1.83-4.05,4.05v47.561c0,0.87,0.28,1.68,0.76,2.34l50.831,50.831C122.146,150.294,150.336,122.085,154.461,86.521z" fill="#343B43"/><g><rect fill="#8FDEF6" height="4.048" width="60.714" x="45.119" y="45.625"/><rect fill="#EA6552" height="4.048" width="19.227" x="45.119" y="105.327"/><g><path d="M120,101.279c0,2.228-1.821,4.048-4.048,4.048H43.707c-2.227,0-4.048-1.82-4.048-4.048V53.721     c0-2.226,1.821-4.048,4.048-4.048h72.245c2.227,0,4.048,1.822,4.048,4.048V101.279z" fill="#CCCBCA"/><path d="M115.952,101.279c0,2.228-1.821,4.048-4.047,4.048H39.048c-2.227,0-4.048-1.82-4.048-4.048V53.721     c0-2.226,1.821-4.048,4.048-4.048h72.857c2.226,0,4.047,1.822,4.047,4.048V101.279z" fill="#FFFFFF"/><g><path d="M40.818,101.785h-1.771c-0.279,0-0.506-0.227-0.506-0.506v-1.771h1.012v1.265h1.265V101.785z" fill="#CCCBCA"/><path d="M39.554,96.123h-1.012v-3.386h1.012V96.123z M39.554,89.352h-1.012v-3.387h1.012V89.352z M39.554,82.579      h-1.012v-3.386h1.012V82.579z M39.554,75.808h-1.012v-3.386h1.012V75.808z M39.554,69.036h-1.012v-3.387h1.012V69.036z       M39.554,62.264h-1.012v-3.386h1.012V62.264z" fill="#CCCBCA"/><path d="M39.554,55.491h-1.012v-1.771c0-0.279,0.227-0.506,0.506-0.506h1.771v1.012h-1.265V55.491z" fill="#CCCBCA"/><path d="M106.486,54.227h-3.648v-1.012h3.648V54.227z M99.189,54.227h-3.647v-1.012h3.647V54.227z       M91.894,54.227h-3.648v-1.012h3.648V54.227z M84.597,54.227h-3.647v-1.012h3.647V54.227z M77.301,54.227h-3.648v-1.012h3.648      V54.227z M70.004,54.227h-3.647v-1.012h3.647V54.227z M62.708,54.227H59.06v-1.012h3.648V54.227z M55.411,54.227h-3.647v-1.012      h3.647V54.227z M48.115,54.227h-3.648v-1.012h3.648V54.227z" fill="#CCCBCA"/><path d="M112.411,55.491h-1.012v-1.265h-1.265v-1.012h1.771c0.279,0,0.506,0.227,0.506,0.506V55.491z" fill="#CCCBCA"/><path d="M112.411,96.122h-1.012v-3.386h1.012V96.122z M112.411,89.351h-1.012v-3.387h1.012V89.351z       M112.411,82.578h-1.012v-3.386h1.012V82.578z M112.411,75.807h-1.012v-3.386h1.012V75.807z M112.411,69.035h-1.012v-3.387      h1.012V69.035z M112.411,62.263h-1.012v-3.386h1.012V62.263z" fill="#CCCBCA"/><path d="M111.905,101.785h-1.771v-1.012h1.265v-1.265h1.012v1.771      C112.411,101.559,112.185,101.785,111.905,101.785z" fill="#CCCBCA"/><path d="M106.486,101.785h-3.648v-1.012h3.648V101.785z M99.189,101.785h-3.647v-1.012h3.647V101.785z       M91.894,101.785h-3.648v-1.012h3.648V101.785z M84.597,101.785h-3.647v-1.012h3.647V101.785z M77.301,101.785h-3.648v-1.012      h3.648V101.785z M70.004,101.785h-3.647v-1.012h3.647V101.785z M62.708,101.785H59.06v-1.012h3.648V101.785z M55.411,101.785      h-3.647v-1.012h3.647V101.785z M48.115,101.785h-3.648v-1.012h3.648V101.785z" fill="#CCCBCA"/></g></g><g><rect fill="#FFFFFF" height="11.131" width="4.048" x="115.952" y="71.935"/><path d="M101.28,71.935c-1.425,0-2.85,0.544-3.936,1.631c-1.087,1.087-1.631,2.511-1.631,3.935     c0,1.425,0.544,2.849,1.631,3.936c1.086,1.086,2.511,1.63,3.936,1.63h14.672V71.935H101.28z" fill="#D9D8D7"/><circle cx="101.28" cy="77.5" fill="#343B43" r="2.53"/></g></g></g></svg>